<?xml version="1.0" ?><svg viewBox="0 0 612 612" xmlns="http://www.w3.org/2000/svg">
  <g id="Music" transform="translate(290, 290) scale(19.125)">
    <path d="M9.29,23.62V16.48l4.86-1.3V16a4,4,0,1,0,4.47,4V12.27A2.25,2.25,0,0,0,16.37,10a2.1,2.1,0,0,0-.56.08l-9.33,2.5a2.24,2.24,0,0,0-1.66,2.16v4.86a4,4,0,1,0,4.47,4Zm-6.54,0a2.52,2.52,0,0,1,2.07-2.47v1.39a.75.75,0,0,0,1.5,0V14.77a.75.75,0,0,1,.55-.71l9.33-2.5a.73.73,0,0,1,.92.71V20a2.52,2.52,0,1,1-3-2.48v1a.75.75,0,0,0,1.5,0V14.2a.75.75,0,0,0-.29-.59.73.73,0,0,0-.65-.13l-6.37,1.7a.75.75,0,0,0-.55.72v7.72a2.52,2.52,0,0,1-5,0Z" fill="#C19A6B"/>
    <path d="M29.9,4.81A2.17,2.17,0,0,0,28,4.43l-3,.79a2.22,2.22,0,0,0-1.65,2.14v4.78a4,4,0,1,0,4.46,3.95v-7L29,8.73a2.28,2.28,0,0,0,1.71-2.2A2.16,2.16,0,0,0,29.9,4.81ZM28.66,7.28l-1.79.47a.76.76,0,0,0-.56.73v7.6a2.52,2.52,0,1,1-2.52-2.47.89.89,0,0,0,.81-.16.73.73,0,0,0,.25-.56V7.36a.72.72,0,0,1,.53-.69l3-.79h0A.74.74,0,0,1,29,6a.67.67,0,0,1,.26.53A.78.78,0,0,1,28.66,7.28Z" fill="#C19A6B"/>
  </g>
</svg>
