<?xml version="1.0" encoding="UTF-8"?>
<svg xmlns="http://www.w3.org/2000/svg" viewBox="0 0 612 612" width="612" height="612" fill="#ffffff">
  <g transform="translate(0, 0) scale(10.5)">
  <g id="Swordfish">
    <path d="M8.39,47c1.95,0,3.79,1.49,5.47,3.16s3.23,3.51,3.17,5.47c-.06,2.5,1.61,3,3,1.7l.32-.3a9.43,9.43,0,0,0,2.34-9.5c0-.09-.06-.25.09-.3,1.28-.42,2.68-.94,4.13-1.53a12.51,12.51,0,0,1,3.16,6.79,1,1,0,0,0,1.48.83c.21-.11,5.1-2.89,2.51-11.25a17.45,17.45,0,0,0,4.73-4.16,12.4,12.4,0,0,1,2.85,6.43,1,1,0,0,0,1.47.83,6.7,6.7,0,0,0,2.93-4.07c1-3.37,0-7.65-2.87-12.72.72-2.9,2.34-6.65,4.18-8.51l8-8.15A2.17,2.17,0,0,0,52.3,8.63l-8.14,8a19.37,19.37,0,0,1-7.08,3.76,17.09,17.09,0,0,1-10-2.94,2.94,2.94,0,0,0-2.37-.55A2.66,2.66,0,0,0,23,18.25c-1.48,2.64-4.28,7.81-6.46,12.89s-1,8.59-.14,10.15A9.4,9.4,0,0,0,7,43.64H7L6.68,44A1.81,1.81,0,0,0,6.13,46C6.6,47,8,47,8.39,47Zm19.3-3.79-3.46-2a.42.42,0,0,1-.15-.56l.08-.1a.41.41,0,0,1,.49,0l3.94,2.28C28.29,42.91,28,43.06,27.69,43.19Zm4,7.24a14.83,14.83,0,0,0-2.88-5.58c1.3-.59,2.83-1.39,3.44-1.73C33.38,47,32.58,49.25,31.74,50.43ZM29.91,36.25l4.9,2.83c-.23.18-.49.35-.73.53L29.5,37A.41.41,0,0,1,29.91,36.25Zm14.24,4.21a5.84,5.84,0,0,1-.84,1.82A15,15,0,0,0,40,36.21a20.77,20.77,0,0,0,2.38-5.08C44.63,35.74,44.62,38.72,44.15,40.46ZM18.37,31.93c2.15-5,4.92-10.1,6.38-12.7a.66.66,0,0,1,.42-.36,1,1,0,0,1,.78.23,17.92,17.92,0,0,0,6.19,2.74,20.6,20.6,0,0,0-4.43,2.21,6.86,6.86,0,0,1-2.4-.75A1,1,0,1,0,24.23,25a7.2,7.2,0,0,0,1.4.63c-.28.24-.58.46-.84.71-.4.4-.78.85-1.16,1.31l-1.19-.39a1,1,0,0,0-.62,1.91l.54.17c-.47.68-.92,1.39-1.34,2.12l-.57-.19a1,1,0,0,0-.63,1.9l.25.08a55.76,55.76,0,0,0-2.46,5.68A10.45,10.45,0,0,1,18.37,31.93ZM15.9,43.22a2.24,2.24,0,0,0,2.79-1.37c1.5-4.51,4-10.62,7.52-14.11a19.29,19.29,0,0,1,9.53-4.87c3.08-.71,7.53-2.54,9.82-4.8l8.14-8a.17.17,0,0,1,.25,0,.16.16,0,0,1,0,.24l-8,8.14c-3.91,4-4.57,10.45-6.32,14.32a7.17,7.17,0,0,1-7.42-1.7,1,1,0,0,0-1.41,1.41,9.13,9.13,0,0,0,6.49,2.7,8,8,0,0,0,1.1-.11,15,15,0,0,1-2,2.61l-5.46-3.15a2.4,2.4,0,0,0-2.84.32L28,35a2.18,2.18,0,0,0-.33.45,2.4,2.4,0,0,0,.88,3.29l3.72,2.15c-.49.29-1,.57-1.49.84l-5.08-2.93a2.38,2.38,0,0,0-2.84.31,2.35,2.35,0,0,0-.46.57,2.41,2.41,0,0,0,.88,3.29l2.12,1.23c-1.11.43-2.2.82-3.2,1.16a2.17,2.17,0,0,0-1.36,2.78A7.46,7.46,0,0,1,19,55.5c0-2.64-1.81-4.82-3.76-6.77S11.14,45,8.5,45h0A7.43,7.43,0,0,1,15.9,43.22Z"/>
    <path d="M34.12,29.69A2.61,2.61,0,0,0,36,25.24a2.61,2.61,0,1,0-1.84,4.45Zm-.43-3a.58.58,0,0,1,.43-.18.61.61,0,0,1,.43.18.62.62,0,0,1,0,.86.61.61,0,0,1-.86,0A.6.6,0,0,1,33.69,26.66Z"/>
  </g>
  </g>
</svg>
