<?xml version="1.0" ?><svg data-name="Layer 1" id="Layer_1" viewBox="0 0 612 612" xmlns="http://www.w3.org/2000/svg">
  <g transform="translate(274, 274) scale(9.5625)">
    <path d="M61.92,26.09a3,3,0,0,0-2.46-.65l-7.66,1.4a3,3,0,0,0-2.14,1.61,1,1,0,0,1-.9.55H46.35a3,3,0,0,1-.68-.09A5.85,5.85,0,0,0,46,27a6,6,0,0,0-11.26-2.88c-.92-.21-1.87-.38-2.86-.53A9,9,0,0,0,14.07,24C6.28,25.53,1,29,1,33c0,5.48,9.65,9.8,22.13,10a6.21,6.21,0,0,0,6,5,5.88,5.88,0,0,0,2.17-.41,1,1,0,0,0,.26-1.71l-.19-.14a1.81,1.81,0,0,1-.21-.18A4.13,4.13,0,0,1,30,42.67c1.54-.18,3-.42,4.44-.72a5,5,0,0,0,9.27-3.68c.23-.16.45-.32.65-.49a3.23,3.23,0,0,1,2-.78h2.41a1,1,0,0,1,.9.55,3,3,0,0,0,2.14,1.61l7.66,1.4a3,3,0,0,0,3.54-3V28.4A3,3,0,0,0,61.92,26.09ZM23,18a7,7,0,0,1,6.79,5.31A54.25,54.25,0,0,0,24,23a51,51,0,0,0-7.84.58A7,7,0,0,1,23,18ZM3,33c0-2.82,4.51-5.78,11.82-7.17a12.88,12.88,0,0,1,0,14.34C7.51,38.78,3,35.82,3,33Zm14,7.53a14.92,14.92,0,0,0,0-15.06c.85-.11,1.72-.22,2.64-.29a13.94,13.94,0,0,1,0,15.64C18.68,40.75,17.81,40.64,17,40.53Zm9.27,4.23a4.07,4.07,0,0,1-1-1.78c.94,0,1.87-.06,2.78-.13A6.12,6.12,0,0,0,29,46,4.21,4.21,0,0,1,26.23,44.76Zm5.59-4.37A50.19,50.19,0,0,1,24,41c-.73,0-1.43,0-2.13,0a15.94,15.94,0,0,0,0-15.92c.7,0,1.4,0,2.13,0a50.19,50.19,0,0,1,7.82.61,15.91,15.91,0,0,0,0,14.78ZM33.89,40a13.95,13.95,0,0,1,0-14c.88.19,1.73.4,2.54.63a14.95,14.95,0,0,0,0,12.76C35.62,39.61,34.77,39.82,33.89,40ZM39,43a3,3,0,0,1-2.61-1.53,27,27,0,0,0,5.52-2.11A2.74,2.74,0,0,1,42,40,3,3,0,0,1,39,43Zm4.32-6.94-.25.17a16.39,16.39,0,0,1-4.7,2.51,12.71,12.71,0,0,1,0-11.48,16.26,16.26,0,0,1,4.7,2.51l.25.17a14.79,14.79,0,0,0,0,6.12Zm.58-8.17a22,22,0,0,0-7.12-3.25A4,4,0,0,1,44,27,4.33,4.33,0,0,1,43.9,27.89ZM48.15,35h-1.8a5.07,5.07,0,0,0-1.16.16,12.37,12.37,0,0,1,0-4.32,5.07,5.07,0,0,0,1.16.16h1.8a13.41,13.41,0,0,0,0,4ZM61,37.6a1,1,0,0,1-.36.77,1,1,0,0,1-.82.22l-7.66-1.4a1,1,0,0,1-.71-.53,3,3,0,0,0-1.21-1.27,12,12,0,0,1,0-4.78,3,3,0,0,0,1.21-1.27h0a1,1,0,0,1,.71-.53l7.66-1.4a1,1,0,0,1,.82.22,1,1,0,0,1,.36.77Z" fill="#A7E3E2"/>
    <path d="M11,29a4,4,0,1,0,4,4A4,4,0,0,0,11,29ZM9.25,33.94A1.89,1.89,0,0,1,9,33a2,2,0,0,1,.25-1,1,1,0,0,1,0,1.89Zm2,1a3,3,0,0,0,0-4,2,2,0,0,1,0,4Z" fill="#7FD1C3"/>
  </g>
</svg>
