<?xml version="1.0" ?>
<svg xmlns="http://www.w3.org/2000/svg" xmlns:xlink="http://www.w3.org/1999/xlink" version="1.1" viewBox="0 0 512 512" width="612" height="612" style="enable-background:new 0 0 512 512;" xml:space="preserve">
<path d="M182.234,367.648c-33.086-0.002-58.384-28.585-55.235-60.9c1.615-16.585,10.478-31.424,24.314-40.712    c2.292-1.539,2.903-4.646,1.364-6.938s-4.646-2.903-6.938-1.364c-16.329,10.961-26.787,28.473-28.693,48.045    c-3.72,38.178,26.197,71.868,65.188,71.87h0.003c2.762,0,4.998-2.238,4.998-5C187.236,369.887,184.996,367.648,182.234,367.648z" fill="#C19A6B"/>
<path d="M503.332,151.774c14.861-14.485,6.65-39.737-13.881-42.721l-39.6-5.754c-4.902-0.713-9.138-3.79-11.33-8.231    l-17.71-35.884c-7.222-14.637-22.359-13.933-22.459-13.962c-9.604,0-18.21,5.351-22.46,13.962l-17.71,35.884    c-2.192,4.442-6.427,7.52-11.328,8.231l-39.601,5.754c-20.538,2.984-28.737,28.241-13.882,42.721l28.655,27.932    c6.426,6.265,4.144,13.979,4.162,14.289c-18.063-6.351-36.773-9.851-55.497-10.563c-9.064-27.72-32.898-47.266-66.074-49.591    c-13.183-17.366-32.684-26.795-54.027-28.233C130.552,86.25,103.372,78.715,78.203,83.17C52.806,66.276,27.609,65.33,12.1,80.842    c-15.511,15.51-14.564,40.706,2.33,66.105c-4.453,25.167,3.081,52.344,22.435,72.381c1.543,22.938,12.085,41.769,28.237,54.031    c1.412,20.14,9.315,38.47,24.214,51.62c6.958,50.754,54.563,88.621,108.571,79.674c10.839,18.676,26.228,34.164,44.706,44.931    c55.957,32.602,133.43,19.211,170.813-43.33c13.12-21.99,19.971-75.208-1.133-114.003c12.891-3.054,18.612-19.606,8.43-29.836    c-32.451-32.63-21.3-21.36-23.685-23.815c2.842-0.253,5.739,0.282,8.336,1.648l35.42,18.621    c18.371,9.656,39.849-5.957,36.341-26.403l-6.765-39.439c-0.837-4.883,0.78-9.862,4.327-13.319L503.332,151.774z M19.171,87.912    c10.43-10.431,27.336-10.653,45.589-1.114c-21.458,7.829-38.655,24.643-46.702,46.704C8.518,115.25,8.739,98.344,19.171,87.912z     M47.044,205.6c4.781-49.887,52.802-92.355,101.127-90.107c16.387,0.734,31.561,6.672,43.215,18.326    c-62.679,4.09-122.214,63.581-126.307,126.307C50.561,245.71,45.114,225.722,47.044,205.6z M404.819,401.126    c-44.669,74.731-152.22,73.355-196.657,1.223c6.542-1.858,12.829-4.417,18.776-7.644c80.239,60.536,195.465,6.026,155.791-103.042    c5.907-0.259,11.859-0.152,17.826,0.345C424.23,329.84,415.204,383.716,404.819,401.126z M258.994,366.911    c35.048,15.856,76.297,15.058,117.553-7.918c-9.98,43.983-80.54,72.226-140.459,30.029    C248.717,380.123,255.034,371.104,258.994,366.911z M413.613,269.467c5.341,5.366,0.64,14.433-6.806,13.127    c-0.445-0.076-3.253-0.352-3.333-0.353c-48.233-4.694-95.842,14.082-127.885,50.601l-30.341,34.57    c-15.384,17.533-36.861,27.723-60.26,28.486c-51.079,1.631-91.015-41.978-86.151-91.899c2.439-25.038,15.818-47.438,36.707-61.458    l28.139-18.891c47.414-31.822,107.217-39.047,160.787-19.639l-4.88,28.453c-3.509,20.45,17.972,36.058,36.341,26.403    l30.889-16.239c1.071,1.018,2.125,2.038,3.143,3.055L413.613,269.467z M467.696,172.546c-5.903,5.755-8.597,14.042-7.202,22.17    l6.765,39.44c2.103,12.272-10.746,21.693-21.831,15.86l-35.42-18.621c-7.284-3.83-15.996-3.844-23.311,0l-35.419,18.621    c-11.019,5.789-23.95-3.504-21.832-15.86c0.018-0.104,6.782-39.542,6.765-39.441c1.394-8.126-1.299-16.414-7.203-22.169    l-28.655-27.932c-8.917-8.693-4.061-23.863,8.339-25.664l39.602-5.754c8.159-1.187,15.208-6.309,18.856-13.702l17.71-35.884    c5.527-11.195,21.45-11.217,26.985,0l17.71,35.884c3.648,7.394,10.698,12.516,18.858,13.702l39.601,5.754    c12.324,1.79,17.31,16.917,8.338,25.664L467.696,172.546z" fill="#C19A6B"/>
</svg>
