<?xml version="1.0" ?><svg viewBox="0 0 612 612" width="612" height="612" xmlns="http://www.w3.org/2000/svg"><defs><style>.cls-1{fill:#8B6F47;}.cls-2{fill:#E8D4B8;}.cls-3{fill:#D4C09E;}.cls-4{fill:#C9B088;}.cls-5{fill:#B89D72;}</style></defs><g transform="translate(0, 0) scale(9.5625)"><g id="Shell"><path class="cls-1" d="M25.58,51l-4,.8a3.62,3.62,0,0,1-4.32-3.67l.12-3.6h27.3l.12,3.6a3.62,3.62,0,0,1-4.32,3.67l-4-.8Z" id="path142758-4"/><path class="cls-2" d="M35.9,15.64a6,6,0,0,1,3.22-.13,6.19,6.19,0,0,1,4,3.47,5.72,5.72,0,0,1,3.06.7A6,6,0,0,1,49,24.14a5.62,5.62,0,0,1,2.45,1.38A6,6,0,0,1,53,31.21a5.48,5.48,0,0,1,1.28,1.5,5.73,5.73,0,0,1-2.11,7.87l-13.2,7A8.33,8.33,0,0,1,31,52.84a8.33,8.33,0,0,1-7.92-5.3l-13.2-7a5.73,5.73,0,0,1-2.11-7.87,5.48,5.48,0,0,1,1.28-1.5,6,6,0,0,1,1.46-5.69A5.62,5.62,0,0,1,13,24.14a6,6,0,0,1,2.9-4.46,5.72,5.72,0,0,1,3.06-.7,6.19,6.19,0,0,1,4-3.47,6,6,0,0,1,3.22.13,6.08,6.08,0,0,1,9.8,0Z" id="path142238-9"/><path class="cls-3" d="M31,13.16a5.89,5.89,0,0,0-2.65.64,6.88,6.88,0,0,1,2.25,1.84,5.91,5.91,0,0,1,3.21-.13,6.18,6.18,0,0,1,4,3.47,5.76,5.76,0,0,1,3.06.7,6,6,0,0,1,2.89,4.46,5.71,5.71,0,0,1,2.46,1.38,5.94,5.94,0,0,1,1.45,5.69,5.48,5.48,0,0,1,1.28,1.5,5.72,5.72,0,0,1-2.11,7.87l-13.19,7a8.42,8.42,0,0,1-5.27,4.91,9.24,9.24,0,0,0,2.65.39,8.35,8.35,0,0,0,7.93-5.3l13.19-7a5.73,5.73,0,0,0,2.11-7.87A5.48,5.48,0,0,0,53,31.21a6,6,0,0,0-1.46-5.69A5.62,5.62,0,0,0,49,24.14a6,6,0,0,0-2.9-4.46,5.72,5.72,0,0,0-3.06-.7,6.16,6.16,0,0,0-4-3.47,6,6,0,0,0-3.22.13A6.28,6.28,0,0,0,31,13.16Z" id="path53309"/><path class="cls-4" d="M31,31.51A11.51,11.51,0,0,0,19.86,45.84l3.21,1.7A8.35,8.35,0,0,0,31,52.84a8.35,8.35,0,0,0,7.93-5.3l3.21-1.7A11.51,11.51,0,0,0,31,31.51Z" id="path135214-3"/><path class="cls-5" d="M42.49,42.86l-8.87,4.68a8.43,8.43,0,0,1-5.29,4.91,9,9,0,0,0,2.67.39,8.35,8.35,0,0,0,7.93-5.3l3.21-1.7A11.57,11.57,0,0,0,42.49,43Z" id="path54524"/><path class="cls-3" d="M31,42.15c-5.81,0-7.93,5.39-7.93,5.39A8.35,8.35,0,0,0,31,52.84a8.35,8.35,0,0,0,7.93-5.3S36.81,42.15,31,42.15Z" id="path139068-1"/><path class="cls-4" d="M37.64,45.42l-4,2.12a8.43,8.43,0,0,1-5.29,4.91,9,9,0,0,0,2.67.39,8.35,8.35,0,0,0,7.93-5.3A9.24,9.24,0,0,0,37.64,45.42Z" id="path56805"/><path d="M28.56,29l.19,0a1,1,0,0,0,.79-1.18L28,19.86a1,1,0,1,0-2,.39l1.58,7.9A1,1,0,0,0,28.56,29Z" fill="#8B6F47"/><path d="M23,30a1,1,0,0,0,.9.57,1.11,1.11,0,0,0,.43-.09,1,1,0,0,0,.47-1.34l-3.43-7.25A1,1,0,0,0,20,21.36a1,1,0,0,0-.48,1.33Z" fill="#8B6F47"/><path d="M16.61,37.45a1,1,0,0,0,.55.17,1,1,0,0,0,.83-.45,1,1,0,0,0-.27-1.38L12.79,32.5a1,1,0,0,0-1.11,1.66Z" fill="#8B6F47"/><path d="M33.25,28.93l.19,0a1,1,0,0,0,1-.8L36,20.25a1,1,0,1,0-2-.39l-1.58,7.89A1,1,0,0,0,33.25,28.93Z" fill="#8B6F47"/><path d="M37.67,30.43a1.11,1.11,0,0,0,.43.09A1,1,0,0,0,39,30l3.43-7.26A1,1,0,0,0,42,21.36a1,1,0,0,0-1.33.48L37.2,29.09A1,1,0,0,0,37.67,30.43Z" fill="#8B6F47"/><path d="M41.16,33a1,1,0,0,0,.66.25,1,1,0,0,0,.75-.34l4.77-5.38a1,1,0,1,0-1.5-1.32l-4.77,5.38A1,1,0,0,0,41.16,33Z" fill="#8B6F47"/><path d="M9.42,41.47l6.91,3.64-.1,3a4.62,4.62,0,0,0,5.51,4.68l3.63-.72a9.75,9.75,0,0,0,11.26,0l3.63.72a4.62,4.62,0,0,0,5.51-4.68l-.1-3,6.91-3.64a6.4,6.4,0,0,0,3.15-3.92,6.86,6.86,0,0,0-.64-5.34A6.26,6.26,0,0,0,54,30.85a6.86,6.86,0,0,0-1.84-6,6.29,6.29,0,0,0-2.29-1.43,7,7,0,0,0-3.27-4.57A6.43,6.43,0,0,0,43.7,18a7.11,7.11,0,0,0-4.32-3.44,6.6,6.6,0,0,0-3.13,0,7,7,0,0,0-10.5,0,6.56,6.56,0,0,0-3.12,0A7.1,7.1,0,0,0,18.3,18a6.46,6.46,0,0,0-2.94.82,7,7,0,0,0-3.27,4.57A6.29,6.29,0,0,0,9.8,24.81a6.86,6.86,0,0,0-1.84,6,6.26,6.26,0,0,0-1,1.36,6.86,6.86,0,0,0-.64,5.34A6.4,6.4,0,0,0,9.42,41.47Zm11.93,9.34a3,3,0,0,1-.6,0,2.61,2.61,0,0,1-2.52-2.7l.07-2,4,2.1a8.89,8.89,0,0,0,1.31,2.11ZM20.51,43a10.49,10.49,0,1,1,20.74,2.18l-1.89,1a9.46,9.46,0,0,0-16.72,0l-1.89-1A10.55,10.55,0,0,1,20.51,43Zm3.66,4.56a7.49,7.49,0,0,1,13.66,0A7.26,7.26,0,0,1,31,51.84,7.26,7.26,0,0,1,24.17,47.56Zm19.6.6a2.61,2.61,0,0,1-2.52,2.7,3,3,0,0,1-.6,0l-2.24-.45a8.89,8.89,0,0,0,1.31-2.11l4-2.1ZM8.64,33.21a4.55,4.55,0,0,1,1-1.23A1,1,0,0,0,10,31a5,5,0,0,1,1.2-4.75,4.65,4.65,0,0,1,2-1.12,1,1,0,0,0,.7-.81,5,5,0,0,1,2.41-3.75A4.67,4.67,0,0,1,18.77,20h.13a1,1,0,0,0,.92-.58,5.15,5.15,0,0,1,3.32-2.92,4.88,4.88,0,0,1,2.68.12,1,1,0,0,0,1.06-.34,5.09,5.09,0,0,1,8.24,0,1,1,0,0,0,1.06.34,4.88,4.88,0,0,1,2.68-.12,5.15,5.15,0,0,1,3.32,2.92,1,1,0,0,0,.92.58,4.6,4.6,0,0,1,2.54.56,5,5,0,0,1,2.41,3.75,1,1,0,0,0,.7.81,4.65,4.65,0,0,1,2,1.12A5,5,0,0,1,52,31a1,1,0,0,0,.33,1,4.55,4.55,0,0,1,1,1.23A4.93,4.93,0,0,1,53.81,37a4.38,4.38,0,0,1-2.16,2.71L43.43,44c0-.34.06-.68.06-1a12.49,12.49,0,0,0-25,0c0,.35,0,.69.06,1L10.35,39.7A4.38,4.38,0,0,1,8.19,37,4.93,4.93,0,0,1,8.64,33.21Z" fill="#8B6F47"/><path d="M44,37.17a1,1,0,0,0,.83.45,1,1,0,0,0,.55-.17l4.93-3.29a1,1,0,0,0-1.11-1.66l-4.93,3.29A1,1,0,0,0,44,37.17Z" fill="#8B6F47"/><path d="M19.43,33a1,1,0,0,0,1.41.09,1,1,0,0,0,.09-1.41l-4.77-5.38a1,1,0,1,0-1.49,1.32Z" fill="#8B6F47"/></g></g></svg>
